<svg xmlns="http://www.w3.org/2000/svg" version="1.1" xmlnsXlink="http://www.w3.org/1999/xlink" xmlnsSvgjs="http://svgjs.dev/svgjs" viewBox="0 0 1422 800" opacity="0.53"><defs><linearGradient x1="50%" y1="0%" x2="50%" y2="100%" id="ccchaos-grad"><stop stop-color="hsl(206, 0%, 58%)" stop-opacity="1" offset="0%"></stop><stop stop-color="hsl(331, 19%, 74%)" stop-opacity="1" offset="100%"></stop></linearGradient></defs><g stroke-width="2" stroke="url(#ccchaos-grad)" fill="none" stroke-linecap="round"><path d="M693.59 30.99C699.82 32.01 705.93 32.98 711.9 33.9 720.79 34.9 737.92 36.18 746.19 36.49 754.39 36.48 770.42 36.28 778.37 36.25 786.45 36.28 803.03 37.23 811.7 38.32 817.73 39.24 823.96 40.45 830.42 41.96 837.13 43.64 844.12 45.63 851.41 47.95 858.98 50.47 866.87 53.31 875.08 56.46 883.53 59.81 892.28 63.45 901.29 67.38 910.44 71.47 919.74 75.81 929.13 80.39 938.47 85.08 947.72 89.97 956.77 95.03 965.49 100.15 973.8 105.41 981.57 110.77 988.69 116.15 995.06 121.6 1000.54 127.1 1006.94 135.31 1013.02 151.7 1012.7 159.81 1010.37 167.75 1001.96 183.33 997.11 190.96 993.24 198.4 990.84 213.02 993.59 220.24 997.45 224.96 1002.81 229.7 1009.65 234.46 1017.91 239.14 1027.35 243.86 1037.73 248.62 1048.75 253.33 1060.02 258.09 1071.14 262.92 1081.71 267.7 1091.29 272.56 1099.47 277.5 1108.24 284.91 1111.85 300.17 1106.52 308.05 1100.6 313.32 1093.2 318.7 1084.75 324.2 1076.02 329.68 1067.35 335.28 1059.3 341.01 1052.62 346.72 1047.58 352.56 1044.57 358.52 1044 364.47 1045.83 370.55 1050.02 376.76 1056.49 382.97 1064.78 389.3 1074.39 395.77 1084.86 402.23 1095.29 408.76 1105.03 415.33 1113.69 421.92 1120.53 428.56 1125.14 435.25 1127.43 441.96 1127.07 448.72 1124.11 455.54 1118.83 462.37 1111.39 469.26 1102.22 476.2 1091.86 483.16 1080.76 490.17 1069.47 497.24 1058.58 504.31 1048.52 511.44 1039.7 518.6 1032.51 525.77 1027.12 532.97 1023.64 540.2 1022.19 547.42 1022.57 554.65 1024.58 561.87 1028.13 569.07 1032.72 576.24 1037.98 583.37 1043.75 590.44 1049.41 597.43 1054.59 604.32 1059.21 611.12 1062.72 617.79 1064.91 624.29 1065.81 630.64 1065.12 636.8 1062.81 642.71 1059.05 648.43 1053.77 653.88 1047.13 659.01 1039.35 663.91 1030.57 668.46 1021.02 672.63 1010.93 676.53 1000.51 680.04 990.01 683.12 979.59 685.92 969.45 688.3 959.77 690.25 950.62 691.94 942.14 693.23 934.38 694.12 924.29 695 908.99 695.06 903.48 694.5 892.57 693.77 883.43 698.47 880.05 702.21 876.15 707.35 866.27 721.04 860.28 729.46 856 735.67 851.38 742.19 846.44 748.94 841.37 755.92 836.01 762.94 830.41 769.89 824.71 776.77 818.79 783.37 812.7 789.56 806.53 795.36 800.22 800.54 793.79 805.01 787.31 808.79 780.74 811.7 774.1 813.66 767.43 814.78 760.71 814.88 753.93 813.96 747.15 812.2 740.33 809.46 733.48 805.79 726.62 801.47 719.81 796.45 713.05 790.86 706.28 784.95 699.55 778.73 692.86 772.33 686.16 766 679.49 759.75 672.84 753.68 666.16 748.03 659.5 742.76 652.83 737.96 646.14 733.81 639.43 730.23 632.72 727.26 625.96 725.03 619.17 723.41 612.36 722.39 605.51 722.06 598.63 722.26 591.73 722.89 584.79 724.08 577.84 725.58 570.87 727.31 563.9 729.35 556.94 731.46 550.01 733.53 543.11 735.68 536.26 737.64 529.5 739.32 522.83 740.86 516.27 741.99 509.87 742.67 500.58 742.95 483.34 740.09 475.52 736.87 470.6 734.08 465.98 730.71 461.66 726.79 457.53 722.45 453.68 717.61 450.11 712.3 446.68 706.65 443.47 700.6 440.46 694.21 437.49 687.57 434.66 680.66 431.92 673.54 429.11 666.25 426.32 658.82 423.52 651.29 420.55 643.69 417.51 636.04 414.39 628.38 411.04 620.73 407.6 613.11 404.06 605.53 400.32 598.03 396.51 590.59 392.66 583.25 388.69 576 384.76 568.84 380.9 561.8 377.04 554.85 373.34 548.01 369.84 541.27 366.45 534.62 363.32 528.07 360.48 521.61 357.82 515.23 355.46 508.92 353.41 502.67 351.53 496.5 349.93 490.37 348.59 484.27 347.34 478.23 346.29 472.2 345.41 466.19 344.52 460.22 343.73 454.23 343.02 448.24 342.21 442.27 341.44 436.28 340.69 430.26 339.8 424.25 338.93 418.2 338.09 412.12 337.13 406.04 336.23 399.91 335.41 393.74 334.55 387.57 333.83 381.35 333.28 375.09 332.78 368.82 332.51 362.59 332.5 356.39 332.6 350.19 332.99 344.03 333.66 337.91 334.48 331.8 335.57 325.74 336.92 319.74 338.38 313.74 340.06 307.81 341.93 301.96 343.82 296.12 345.83 290.36 347.94 284.69 350.99 276.27 356.93 260.01 359.74 252.19 362.27 244.55 367.22 230 369.81 223.1 372.55 216.4 379.25 203.76 383.4 197.82 388.18 192.02 399.66 181.04 406.3 175.82 410.97 172.33 415.86 168.93 420.92 165.59 426.02 162.19 431.21 158.83 436.46 155.51 441.63 152.09 446.78 148.67 451.88 145.26 456.8 141.72 461.64 138.15 466.36 134.55 473.06 128.9 485.59 117.12 491.48 110.98 497.07 104.55 508.06 91.34 513.62 84.62 517.3 80.07 521.11 75.56 525.05 71.12 529.02 66.67 533.15 62.33 537.45 58.13 541.81 53.99 546.37 50.04 551.11 46.3 555.93 42.7 560.94 39.36 566.12 36.31 571.39 33.45 576.83 30.9 582.41 28.7 588.08 26.71 593.88 25.07 599.79 23.8 605.77 22.73 611.84 22.02 617.99 21.65 624.18 21.45 630.43 21.57 636.72 21.97 643.04 22.48 649.37 23.22 655.71 24.18 662.07 25.14 668.41 26.25 674.73 27.48 681.06 28.61 687.34 29.79 693.58 30.99" stroke-dasharray="3 5" transform="rotate(0, 711, 400)" opacity="0.35"></path><path d="M688.68 45.89C694.6 46.92 700.47 47.91 706.29 48.84 714.99 49.88 732.2 51.23 740.75 51.59 749.33 51.61 766.67 51.42 775.53 51.35 781.55 51.26 787.68 51.3 793.94 51.49 800.33 51.7 806.89 52.11 813.63 52.74 820.54 53.47 827.66 54.45 835.01 55.71 842.54 57.12 850.3 58.82 858.28 60.83 866.41 63.01 874.75 65.51 883.25 68.31 900.41 74.47 917.76 81.78 934.71 90.11 950.54 98.99 964.7 108.64 976.34 118.9 985.22 129.34 990.61 140.12 992.25 151.1 991.23 161.92 987.47 172.77 982.07 183.58 977.42 194.03 974.25 204.4 974.28 214.7 979.31 224.6 989.45 234.47 1004.63 244.36 1013.86 249.18 1023.85 254.02 1034.34 258.89 1045.03 263.7 1055.56 268.54 1065.55 273.43 1074.69 278.26 1082.62 283.16 1089 288.11 1095.06 295.52 1094.26 310.68 1087.66 318.46 1081.37 323.65 1073.94 328.94 1065.8 334.33 1057.64 339.7 1049.74 345.19 1042.59 350.78 1036.84 356.36 1032.67 362.06 1030.4 367.87 1030.39 373.68 1032.54 379.6 1036.81 385.65 1043.12 391.69 1051.04 397.86 1060.14 404.16 1070.01 410.45 1079.86 416.8 1089.12 423.21 1097.47 429.61 1104.21 436.07 1108.99 442.58 1111.71 449.1 1112.04 455.66 1109.99 462.28 1105.78 468.89 1099.5 475.56 1091.48 482.27 1082.18 488.98 1071.95 495.72 1061.29 502.5 1050.7 509.27 1040.58 516.07 1031.32 522.88 1023.33 529.68 1016.8 536.48 1011.89 543.27 1008.79 550.03 1007.4 556.76 1007.61 563.44 1009.42 570.08 1012.44 576.65 1016.39 583.13 1021.17 589.52 1026.25 595.81 1031.29 601.94 1040.7 613.88 1046.56 625.05 1047.45 635.24 1043.37 644.69 1033.78 652.91 1019.64 659.74 1002.28 665.65 983 670.1 963.33 673.05 944.32 675.3 927.04 676.34 912.02 676.38 899.52 676.46 889.4 676.21 881.25 676.05 872.46 677.98 861.8 685.87 858.34 690.48 854.79 696.36 846.48 711.04 841.62 719.67 838.2 725.9 834.48 732.35 830.47 738.94 826.37 745.67 821.99 752.37 817.35 758.95 812.62 765.41 807.64 771.54 802.43 777.26 797.16 782.57 791.69 787.27 786.02 791.28 780.31 794.66 774.44 797.21 768.41 798.88 762.36 799.78 756.17 799.74 749.85 798.76 743.53 797.02 737.09 794.38 730.54 790.89 723.99 786.81 717.42 782.07 710.82 776.8 704.22 771.23 697.61 765.35 690.97 759.27 684.33 753.24 677.67 747.23 670.99 741.36 664.3 735.83 657.59 730.61 650.86 725.79 644.11 721.53 637.34 717.76 630.55 714.52 623.75 711.95 616.93 709.92 610.1 708.44 603.27 707.61 596.43 707.27 589.59 707.37 582.79 708.01 576 708.98 569.25 710.21 562.56 711.8 555.93 713.51 549.38 715.26 542.93 717.16 536.6 718.96 530.42 720.59 518.46 723.63 507.28 725.27 497.05 725.18 487.59 723.77 479.17 720.25 471.85 714.65 465.07 707.52 459.08 698.51 453.7 687.9 448.15 676.19 442.67 663.35 437.02 649.71 430.53 635.61 423.61 621.14 416.29 606.56 408.26 592 400.21 577.57 392.46 563.4 388.63 556.4 385 549.48 381.61 542.64 378.37 535.88 375.42 529.19 372.78 522.58 370.34 516.04 368.22 509.57 366.42 503.17 364.79 496.83 363.44 490.55 362.34 484.32 361.33 478.14 360.51 472 359.84 465.89 359.13 459.82 358.51 453.77 357.94 447.74 357.24 441.74 356.54 435.74 355.83 429.75 354.95 423.77 354.05 417.79 353.15 411.8 352.1 405.82 351.09 399.83 350.13 393.82 349.12 387.82 348.25 381.81 347.54 375.78 346.88 369.75 346.48 363.78 346.34 357.87 346.51 349.03 348.65 331.71 350.6 323.23 352.99 314.84 358.88 298.52 362.15 290.61 365.35 282.82 371.51 267.83 374.35 260.65 376.85 253.62 381.51 240.22 383.82 233.86 385.34 229.67 387.01 225.61 388.85 221.68 392.82 213.81 397.93 206.39 404.28 199.39 411.53 192.23 420.03 185.36 429.55 178.71 439.53 171.68 450.01 164.71 460.66 157.7 470.91 150.15 480.89 142.44 490.47 134.55 499.23 126.07 507.57 117.44 515.63 108.71 523.02 99.6 530.42 90.6 537.98 81.9 543.56 75.45 555.25 63.47 561.42 58.07 567.78 53.13 581.33 44.98 588.52 41.85 595.92 39.36 611.48 36.41 619.58 35.91 627.83 35.96 644.79 37.56 653.45 38.96 659.25 39.96 665.09 41.1 670.97 42.34 676.84 43.49 682.75 44.68 688.67 45.89" stroke-dasharray="5 10" transform="rotate(4.04, 711, 400)" opacity="0.23"></path><path d="M690.54 60.79C699.12 62.33 716.4 64.84 725.13 65.77 736.85 66.28 748.8 66.59 761.05 66.78 773.54 66.4 786.51 66.24 800.05 66.49 813.96 66.74 828.55 67.77 843.77 69.72 859.26 72.17 875.17 75.75 891.2 80.47 906.81 85.9 921.8 92.46 935.57 100.04 947.7 108.21 957.61 117.23 964.74 126.92 969.39 136.9 971 147.33 969.76 158.07 967.12 168.77 963.15 179.6 959.06 190.47 956.98 201.1 957.42 211.7 961.59 222.24 970.54 232.46 983.91 242.65 1001.1 252.81 1020.74 262.69 1040.76 272.61 1058.72 282.64 1072.53 292.44 1080.14 302.42 1080.39 312.63 1074.17 322.69 1062.22 333.05 1047.02 343.73 1032.63 354.34 1021.48 365.32 1016.39 376.71 1016.87 382.39 1019.3 388.17 1023.61 394.07 1029.74 399.96 1037.29 405.96 1045.89 412.08 1055.18 418.19 1064.47 424.35 1073.24 430.55 1081.25 436.74 1087.87 442.98 1092.75 449.26 1096.94 461.81 1092.46 474.5 1080.28 487.26 1062.88 500.01 1042.86 512.8 1023.47 525.52 1007.65 538.15 997.1 550.62 992.51 562.79 994.08 574.7 999.99 586.15 1008.23 596.96 1017.5 607.3 1024.89 616.79 1028.78 625.25 1028.85 633.04 1023.93 639.65 1014.39 644.97 1001.16 649.58 984.95 652.93 967.08 655.07 948.53 656.8 930.41 657.66 913.51 657.88 898.21 658.42 884.86 658.94 873.4 659.81 863.85 661.95 855.73 665.09 848.58 669.53 842.53 675.88 836.71 683.77 830.7 693.19 824.99 704.25 818.64 716.32 811.48 728.91 804.22 741.78 796.04 753.98 786.93 764.79 777.68 773.98 767.56 780.57 756.66 784.05 751.18 784.74 745.52 784.58 739.68 783.55 733.84 781.84 727.84 779.31 721.68 775.99 715.52 772.13 709.29 767.68 702.98 762.72 696.69 757.47 690.33 751.93 683.92 746.18 671.12 734.79 658.13 723.75 645 713.71 631.95 705.58 618.82 699.27 605.7 694.89 592.77 692.9 579.98 692.6 567.49 693.62 555.39 696.16 543.79 699.11 532.88 701.96 522.59 704.92 513.14 706.88 504.67 707.48 496.83 707.12 489.89 704.96 483.82 700.95 477.97 695.6 472.61 688.46 467.52 679.72 461.95 669.87 456.19 658.77 450.07 646.7 443.05 634.01 435.59 620.73 427.8 607.12 419.48 593.33 411.32 579.46 403.64 565.68 396.36 551.99 390.13 538.48 385.16 525.22 381.04 512.15 378.15 499.31 376.36 486.72 374.82 474.28 373.78 462.03 372.96 449.95 371.53 437.97 369.92 426.08 368.16 414.29 367.02 408.41 365.89 402.54 364.81 396.69 363.67 390.84 362.65 385.01 361.79 379.19 360.73 370.51 360.24 353.55 360.93 345.29 362.65 334.33 365.61 323.73 369.56 313.53 373.71 303.34 378.26 293.57 382.89 284.25 386.85 274.96 390.53 266.12 393.93 257.76 396.63 249.4 399.4 241.48 402.53 234 405.81 226.43 410.05 219.21 415.44 212.3 421.7 205.16 429.26 198.19 437.99 191.34 447.4 184.08 457.58 176.79 468.21 169.43 478.78 161.53 489.31 153.47 499.61 145.26 509.26 136.54 518.51 127.73 527.38 118.92 535.53 109.84 543.46 100.98 551.31 92.5 558.71 84.19 566.29 76.59 574.17 69.87 581.9 63.76 590.1 58.8 598.8 55.1 607.52 52.21 616.78 50.6 626.54 50.27 636.35 50.5 646.63 51.73 657.32 53.78 665.39 55.39 682 58.98 690.53 60.79" stroke-dasharray="11 1" transform="rotate(8.08, 711, 400)" opacity="0.65"></path><path d="M698.59 75.69C709.76 77.6 721.25 79.31 733.05 80.76 744.92 81.35 757.2 81.73 769.91 81.97 782.77 81.63 796.13 81.45 809.96 81.59 823.94 81.67 838.32 82.42 852.93 83.97 867.38 85.94 881.69 88.93 895.46 92.99 908.35 97.69 920.02 103.48 929.96 110.28 938.16 117.68 944.05 125.96 947.37 134.98 948.88 144.36 948.17 154.29 945.72 164.62 943.12 175.03 940.49 185.67 938.95 196.45 940.21 207.09 944.51 217.76 952.55 228.43 964.7 238.86 980.3 249.27 998.35 259.65 1017.37 269.79 1035.43 279.95 1050.4 290.16 1060.8 300.17 1065.11 310.3 1062.76 320.58 1055.05 330.72 1042.83 341.08 1028.47 351.69 1015.61 362.22 1006.21 373.05 1002.52 384.2 1006.2 395.32 1016.46 406.8 1031.64 418.63 1049.3 430.47 1065.25 442.39 1076.44 454.37 1081.44 466.35 1078.63 478.36 1068.6 490.35 1053.33 502.3 1034.84 514.15 1015.95 525.83 999.34 537.37 986.78 548.63 979.31 559.46 977.5 570.01 980.27 579.99 986.14 589.25 994.21 598.06 1001.89 606 1007.54 612.93 1010.7 619.3 1009.79 624.58 1004.66 628.74 995.92 632.4 983.67 635.04 968.88 636.75 952.43 638.34 935.2 639.35 918.08 640.03 901.52 641.26 886.16 642.72 872.22 644.7 859.76 647.99 848.74 652.32 838.94 657.88 830.35 665.16 822.46 673.78 814.94 683.64 808.01 694.82 800.96 706.7 793.56 718.81 786.3 730.96 778.45 742.29 769.91 752.16 761.33 760.44 752.02 766.25 741.96 769.17 731.86 769.56 721.06 766.83 709.58 761.09 698.11 753.39 686.3 743.8 674.24 733.04 662.23 722.22 650.05 711.58 637.78 701.71 625.65 693.45 613.54 686.73 601.57 681.71 589.88 678.85 578.49 677.57 567.56 677.59 557.07 679.15 547.19 681.3 538.08 683.58 529.51 686.25 521.75 688.26 514.85 689.26 508.32 689.63 502.48 688.52 497.2 685.82 491.81 682.03 486.59 676.58 481.34 669.6 475.39 661.59 469.08 652.26 462.32 641.87 454.69 630.77 446.71 618.92 438.54 606.54 430.08 593.85 421.98 580.88 414.56 567.82 407.73 554.71 402.07 541.65 397.73 528.72 394.24 515.88 391.95 503.21 390.65 490.76 389.51 478.41 388.75 466.25 388.08 454.3 386.69 442.41 385.03 430.69 383.11 419.13 380.51 407.6 378.04 396.2 376.04 384.95 374.32 373.7 373.78 362.84 374.56 352.39 376.2 341.93 379.13 331.87 383.13 322.24 387.42 312.6 392.16 303.38 397 294.59 401.21 285.79 405.1 277.41 408.63 269.45 411.34 261.43 413.95 253.78 416.71 246.48 419.41 239.02 422.86 231.82 427.3 224.84 432.49 217.56 438.95 210.38 446.64 203.24 455.16 195.67 464.65 188.04 474.86 180.31 485.33 172.08 496.05 163.73 506.79 155.27 517.15 146.4 527.23 137.51 537 128.71 546.11 119.78 554.91 111.15 563.49 102.99 571.51 95.1 579.49 87.96 587.56 81.74 595.31 76.16 603.32 71.71 611.69 68.49 619.92 66.02 628.61 64.77 637.78 64.71 646.89 65.16 656.52 66.52 666.66 68.64 676.77 70.71 687.41 73.12 698.58 75.69" stroke-dasharray="10 2" transform="rotate(12.12, 711, 400)" opacity="0.29"></path><path d="M710.41 90.59C721.4 92.51 732.77 94.25 744.51 95.74 756.29 96.41 768.47 96.87 781.02 97.18 793.62 96.9 806.55 96.73 819.69 96.81 832.75 96.75 845.83 97.27 858.68 98.48 871.06 100.01 882.8 102.47 893.51 105.89 903.16 109.88 911.28 114.9 917.53 120.91 922.33 127.49 925.09 134.97 925.87 143.23 925.71 151.91 924.29 161.2 922.26 170.96 921.14 180.92 920.99 191.19 922.75 201.68 927.58 212.16 935.51 222.74 946.75 233.36 961.14 243.85 977.84 254.35 995.67 264.83 1013.17 275.14 1028.65 285.46 1040.39 295.79 1047.47 305.96 1048.83 316.2 1044.35 326.53 1035.61 336.75 1023.51 347.11 1010.21 357.63 998.93 368.1 991.19 378.78 988.79 389.68 993.03 400.56 1003.05 411.7 1017.38 423.09 1033.94 434.49 1049.06 445.87 1060.08 457.2 1065.74 468.53 1064.42 479.78 1056.42 490.89 1043.3 501.95 1026.55 512.8 1008.57 523.36 991.74 533.76 977.78 543.77 967.92 553.27 963.02 562.5 962.57 571.09 965.64 578.93 971.68 586.38 978.53 592.98 984.71 598.64 990.75 606.03 981.94 615.77 966.97 618.56 953.78 620.31 938.91 621.76 923.16 623.13 907.04 625.21 891.2 627.68 876.1 630.79 861.82 635.18 848.65 640.59 836.59 647.12 825.56 655.15 815.44 664.29 805.99 674.4 797.24 685.52 788.8 697.07 780.42 708.6 772.35 719.98 764.08 730.41 755.45 739.35 746.89 746.76 737.85 751.84 728.29 754.24 718.71 754.37 708.58 751.65 697.91 746.19 687.25 738.97 676.34 729.98 665.27 719.87 654.27 709.62 643.19 699.41 632.15 689.76 621.27 681.47 610.54 674.45 600.1 668.89 589.93 665.27 580.19 663.08 571 662.14 562.19 662.73 554.02 664.01 546.58 665.61 539.49 667.8 533.07 669.61 527.31 670.74 521.62 671.54 516.33 671.17 511.29 669.49 505.86 666.96 500.33 662.98 494.54 657.59 487.96 651.27 480.93 643.67 473.47 634.96 465.3 625.53 456.91 615.24 448.55 604.28 440.16 592.91 432.34 581.11 425.39 569.05 419.19 556.83 414.22 544.51 410.59 532.2 407.78 519.88 406.06 507.65 405.22 495.57 404.42 483.53 403.85 471.66 403.25 459.98 401.85 448.34 400.09 436.88 398.01 425.61 395.22 414.37 392.53 403.29 390.29 392.4 388.36 381.52 387.61 371.06 388.2 361.03 389.71 350.99 392.56 341.36 396.54 332.16 400.91 322.92 405.8 314.09 410.86 305.67 415.34 297.19 419.51 289.09 423.27 281.34 426.14 273.48 428.76 265.92 431.32 258.63 433.61 251.13 436.41 243.81 439.99 236.62 444.12 229.12 449.42 221.65 455.91 214.17 463.28 206.29 471.75 198.32 481.14 190.26 491.05 181.78 501.5 173.21 512.23 164.59 522.9 155.68 533.53 146.83 543.98 138.17 553.98 129.48 563.7 121.18 573.17 113.43 582.11 106.02 590.88 99.4 599.58 93.73 607.88 88.7 616.28 84.76 624.86 82.01 633.2 79.96 641.86 79.05 650.91 79.25 659.84 79.89 669.24 81.36 679.14 83.53 688.99 85.63 699.4 88.04 710.4 90.59" stroke-dasharray="5 1" transform="rotate(16.16, 711, 400)" opacity="0.86"></path><path d="M722.4 105.49C733.19 107.42 744.28 109.18 755.62 110.7 766.97 111.46 778.56 112 790.31 112.39 802.01 112.19 813.76 112.05 825.39 112.1 836.77 111.96 847.79 112.3 858.19 113.23 867.98 114.38 876.79 116.35 884.34 119.18 890.93 122.51 895.98 126.79 899.38 132 901.83 137.76 902.82 144.41 902.58 151.83 902.28 159.71 901.66 168.25 901.4 177.33 902.74 186.67 905.71 196.41 910.95 206.44 919.1 216.55 929.99 226.85 943.47 237.26 959.02 247.61 975.71 258.03 992.33 268.46 1007.61 278.79 1020.14 289.13 1028.6 299.48 1032.59 309.71 1031.42 319.98 1025.33 330.29 1016.02 340.52 1004.35 350.83 992.28 361.23 982.59 371.58 976.43 382.06 975.19 392.68 979.88 403.28 989.63 414.04 1003.13 424.95 1018.62 435.85 1032.9 446.64 1043.66 457.28 1049.84 467.91 1049.84 478.35 1043.74 488.55 1032.72 498.68 1017.87 508.51 1001.14 517.95 984.61 527.25 969.85 536.07 958.18 544.33 950.64 552.34 947.14 559.71 947.23 566.34 950.67 572.66 955.81 578.2 961.38 582.92 968.9 589.19 969.23 597.93 960.2 600.95 950.86 603.12 939.3 605.21 926.16 607.42 911.95 610.42 897.2 613.93 882.41 618.12 867.75 623.52 853.65 629.85 840.3 637.16 827.61 645.74 815.72 655.2 804.58 665.38 794.05 676.29 784.05 687.38 774.42 698.25 765.16 708.81 756.02 718.34 746.87 726.37 737.87 732.95 728.69 737.34 719.28 739.28 709.89 739.16 700.2 736.47 690.21 731.29 680.22 724.53 670.18 716.13 660.17 706.66 650.21 696.99 640.33 687.23 630.65 677.87 621.1 669.61 611.84 662.4 602.97 656.42 594.31 652.13 586.14 649.14 578.53 647.31 571.16 646.94 564.36 647.32 558.17 648.16 549.27 650.44 533.15 653.16 525.19 652.23 519.28 650.67 513.1 647.86 506.55 643.81 499.21 639 491.47 632.97 483.4 625.86 474.84 618.07 466.28 609.36 457.97 599.91 449.9 589.99 442.6 579.53 436.32 568.67 430.88 557.57 426.71 546.23 423.83 534.78 421.69 523.25 420.51 511.7 420.06 500.2 419.51 488.71 419.06 477.31 418.46 466.05 416.99 454.82 415.09 443.74 412.84 432.83 409.87 421.95 406.99 411.23 404.55 400.71 402.42 390.19 401.46 380.09 401.86 370.41 403.2 360.72 405.92 351.42 409.82 342.52 414.21 333.58 419.19 325.01 424.42 316.79 429.18 308.49 433.67 300.51 437.74 292.82 440.89 284.99 443.67 277.38 446.23 269.96 448.31 262.32 450.66 254.79 453.54 247.34 456.74 239.57 460.93 231.8 466.19 223.99 472.25 215.82 479.46 207.58 487.69 199.26 496.61 190.62 506.3 181.95 516.53 173.29 526.99 164.46 537.67 155.77 548.39 147.35 558.92 139.02 569.32 131.15 579.53 123.88 589.36 117.02 598.99 110.97 608.48 105.87 617.6 101.39 626.68 97.98 635.81 95.69 644.67 94.04 653.71 93.45 662.98 93.88 672.12 94.69 681.6 96.26 691.48 98.47 701.31 100.58 711.6 102.97 722.4 105.49" stroke-dasharray="3 11" transform="rotate(20.200000000000003, 711, 400)" opacity="0.67"></path><path d="M730.94 120.39C741.42 122.31 751.99 124.09 762.6 125.65 773.2 126.49 783.78 127.12 794.25 127.6 804.6 127.49 814.69 127.42 824.36 127.48 833.71 127.29 842.4 127.5 850.25 128.2 860.61 129.81 874.43 137.4 877.73 143.64 879.18 148.58 879.85 154.37 880.08 160.94 880.95 167.96 882.29 175.66 884.64 183.94 888.92 192.54 895.09 201.59 903.47 211.01 914.28 220.58 927.19 230.41 941.79 240.41 957.39 250.45 973.08 260.59 987.7 270.8 1000.29 280.96 1009.71 291.17 1015.03 301.38 1016.28 311.53 1013.06 321.7 1005.85 331.88 996.38 342.01 985.43 352.17 974.72 362.37 966.6 372.53 961.91 382.76 961.71 393.03 966.76 403.29 976.2 413.62 988.88 423.99 1003.33 434.36 1016.76 444.52 1027.2 454.44 1033.77 464.34 1034.91 473.97 1030.54 483.26 1021.58 492.5 1008.7 501.35 993.48 509.75 977.7 518.02 962.73 525.78 949.88 532.97 940.23 539.96 934.03 546.32 931.2 552 933.18 559.86 945.85 572 950.97 576.5 952.07 580.68 938.7 588.52 924.93 593.07 913.67 597.02 901.22 601.5 888.08 606.67 874.49 612.93 860.84 620.02 847.45 627.92 834.25 636.85 821.56 646.44 809.45 656.51 797.74 667.06 786.58 677.58 775.9 687.72 765.54 697.43 755.52 706.06 745.74 713.22 736.12 719 726.61 722.76 717.15 724.26 707.73 723.94 698.28 721.29 688.8 716.39 679.32 710.08 670.03 702.26 660.95 693.4 651.9 684.31 643.11 675.04 634.66 666.01 626.27 657.87 618.27 650.56 610.71 644.26 603.26 639.43 596.29 635.73 589.82 633.09 580.41 631.56 563.46 632.63 555.45 633.79 549.75 634.64 543.96 634.87 537.97 634.32 531.32 633.42 524.31 631.49 516.93 628.51 508.9 624.94 500.59 620.28 492.13 614.6 483.45 608.33 475.01 601.15 467.06 593.17 459.56 584.75 452.99 575.69 447.55 566.13 442.98 556.3 439.65 546.12 437.53 535.7 436.01 525.15 435.31 514.47 435.16 503.74 434.77 492.98 434.35 482.23 433.67 471.55 432.08 460.87 430.03 450.28 427.59 439.83 424.47 429.39 421.42 419.08 418.8 408.94 416.5 398.8 415.35 389.04 415.54 379.66 416.69 370.27 419.23 361.23 422.98 352.54 427.31 343.8 432.32 335.38 437.67 327.26 442.68 319.04 447.49 311.07 451.91 303.32 455.45 295.43 458.53 287.69 461.27 280.08 463.36 272.25 465.5 264.48 467.91 256.74 470.39 248.72 473.61 240.68 477.72 232.6 482.47 224.23 488.31 215.8 495.17 207.35 502.79 198.67 511.3 190.02 520.55 181.46 530.26 172.83 540.43 164.44 550.88 156.38 561.41 148.5 571.99 141.14 582.54 134.43 592.91 128.16 603.16 122.71 613.28 118.19 623.14 114.28 632.91 111.38 642.62 109.53 652.12 108.26 661.65 107.97 671.28 108.61 680.79 109.56 690.48 111.21 700.4 113.43 710.27 115.54 720.45 117.9 730.94 120.39" stroke-dasharray="7 6" transform="rotate(24.24, 711, 400)" opacity="0.82"></path><path d="M733.43 135.29C743.45 137.2 753.31 138.99 762.97 140.58 772.6 141.49 781.95 142.22 790.93 142.79 799.77 142.8 808.11 142.81 815.82 142.9 826.56 142.78 843.11 144.56 848.65 147.02 852.82 150.66 858.08 162.5 860.75 170.68 863.7 176.81 867.6 183.62 872.85 191.04 880 198.79 888.93 207.05 899.71 215.71 912.22 224.59 926.06 233.78 940.66 243.2 955.32 252.73 969.18 262.42 981.26 272.21 990.92 282.03 997.27 291.91 999.73 301.82 998.7 311.72 993.94 321.64 986.09 331.55 976.84 341.44 966.84 351.34 957.56 361.23 950.97 371.1 947.64 380.98 948.34 390.83 953.66 400.69 962.76 410.53 974.63 420.33 988.06 430.13 1000.65 439.65 1010.71 448.85 1017.53 458.03 1019.64 466.87 1016.84 475.32 1009.81 483.72 998.94 491.69 985.43 499.18 970.78 506.58 956.13 513.46 942.7 519.78 931.57 525.97 923.18 531.58 917.73 536.59 915.52 543.66 922.93 555.09 928.1 559.76 931.5 564.47 926.8 574.32 918.16 580.2 910.26 585.03 900.84 590.4 890.27 596.41 878.88 603.36 866.9 610.99 854.66 619.28 842.22 628.36 829.87 637.9 817.8 647.69 805.85 657.76 794.29 667.63 783.15 676.99 772.2 685.83 761.64 693.57 751.45 699.89 741.38 704.92 731.59 708.09 722.05 709.21 712.56 708.71 703.25 706.11 694.12 701.49 684.99 695.61 676.24 688.35 667.87 680.1 659.49 671.6 651.5 662.83 643.93 654.17 636.36 646.22 629.21 638.89 622.5 632.38 615.76 627.13 609.44 622.84 603.5 619.48 597.45 617.39 591.68 616.03 586.12 615.24 580.27 615.3 574.47 615.56 568.62 615.8 562.26 616.34 555.69 616.5 548.83 616.1 541.36 615.55 533.58 614.21 525.5 612.01 517 609.4 508.4 605.84 499.88 601.38 491.41 596.43 483.41 590.61 476.1 584.02 469.42 577.01 463.76 569.34 459.27 561.1 455.63 552.59 453.14 543.63 451.72 534.35 450.75 524.9 450.41 515.23 450.46 505.41 450.14 495.52 449.67 485.55 448.85 475.56 447.11 465.56 444.88 455.58 442.27 445.66 439.01 435.74 435.82 425.9 433.05 416.16 430.6 406.42 429.28 397 429.25 387.9 430.18 378.79 432.5 369.97 436.05 361.43 440.25 352.85 445.21 344.52 450.61 336.41 455.81 328.22 460.9 320.21 465.69 312.36 469.66 304.36 473.16 296.47 476.22 288.66 478.54 280.65 480.7 272.66 482.91 264.69 484.94 256.48 487.45 248.25 490.61 240.01 494.2 231.54 498.71 223.06 504.16 214.61 510.3 206.03 517.39 197.54 525.3 189.22 533.8 180.93 542.94 172.94 552.55 165.35 562.47 158.01 572.66 151.23 582.98 145.14 593.35 139.49 603.72 134.66 614.04 130.74 624.27 127.38 634.42 124.97 644.47 123.55 654.41 122.63 664.3 122.61 674.16 123.43 683.95 124.51 693.77 126.22 703.63 128.43 713.48 130.52 723.41 132.85 733.43 135.29" stroke-dasharray="8 7" transform="rotate(28.28, 711, 400)" opacity="0.35"></path><path d="M729.13 150.19C738.52 152.09 747.57 153.87 756.21 155.49 764.81 156.48 772.94 157.3 780.54 157.97 788.03 158.1 794.89 158.2 801.06 158.36 809.65 158.26 822.78 159.6 827.49 161.53 831.81 164.42 840.47 174.2 846.32 181.15 851.69 186.4 858.21 192.32 866.11 198.83 875.57 205.68 886.46 213.05 898.63 220.86 911.76 228.92 925.43 237.34 939.03 246.04 951.92 254.89 963.38 263.95 972.63 273.16 979.34 282.45 982.85 291.84 982.88 301.28 980.06 310.75 974.28 320.25 966.23 329.75 957.52 339.26 948.64 348.76 940.82 358.23 935.7 367.7 933.6 377.13 935.08 386.5 940.57 395.87 949.3 405.17 960.37 414.38 972.83 423.58 984.58 432.45 994.21 440.97 1001.16 449.46 1004.06 457.58 1002.64 465.29 997.42 472.95 988.51 480.17 976.84 486.92 963.62 493.61 949.75 499.81 936.32 505.5 924.35 511.12 914.37 516.25 906.75 520.87 900.99 533.31 908.98 549.7 910.85 555.23 910.78 559.47 909.02 563.97 905.56 568.85 900.85 574.46 894.56 580.57 886.94 587.23 878.36 594.67 868.83 602.66 858.64 611.12 847.98 620.16 837.01 629.47 825.96 638.85 814.78 648.33 803.72 657.48 792.88 666.02 782.09 673.99 771.59 680.87 761.41 686.38 751.3 690.72 741.5 693.35 732.03 694.12 722.58 693.46 713.42 690.93 704.55 686.59 695.68 681.13 687.28 674.41 679.33 666.76 671.36 658.83 663.82 650.59 656.7 642.34 649.52 634.63 642.74 627.38 636.32 620.77 629.79 615.21 623.55 610.44 617.55 606.49 611.33 603.65 605.23 601.5 599.18 599.93 592.75 599.2 586.24 598.75 579.56 598.41 572.4 598.5 564.99 598.37 557.31 597.9 549.17 597.44 540.83 596.4 532.38 594.69 523.74 592.74 515.23 590.01 507.03 586.49 499.13 582.62 491.87 577.96 485.46 572.57 479.77 566.84 475.14 560.44 471.65 553.46 468.92 546.22 467.21 538.49 466.41 530.35 465.87 522.05 465.79 513.44 465.93 504.6 465.58 495.66 464.98 486.57 463.98 477.36 462.05 468.13 459.64 458.83 456.87 449.51 453.49 440.19 450.19 430.86 447.3 421.56 444.74 412.26 443.25 403.2 443.01 394.38 443.7 385.55 445.75 376.94 449.05 368.54 453.04 360.1 457.87 351.84 463.24 343.74 468.55 335.56 473.87 327.51 478.99 319.56 483.4 311.49 487.36 303.47 490.87 295.51 493.58 287.38 496 279.26 498.27 271.15 500.15 262.86 502.26 254.56 504.77 246.29 507.45 237.86 510.84 229.48 515.02 221.19 519.72 212.84 525.3 204.66 531.71 196.72 538.71 188.88 546.44 181.41 554.79 174.39 563.56 167.66 572.78 161.52 582.3 156.07 592.04 151.08 601.95 146.87 611.92 143.53 621.95 140.72 631.97 138.78 641.94 137.75 651.89 137.16 661.77 137.37 671.56 138.35 681.33 139.53 691.02 141.27 700.61 143.47 710.21 145.53 719.73 147.8 729.13 150.19" stroke-dasharray="9 10" transform="rotate(32.32, 711, 400)" opacity="0.10"></path><path d="M719.33 165.09C728 166.96 736.22 168.74 743.94 170.37 751.62 171.43 758.77 172.34 765.35 173.11 774.81 173.48 790.61 173.81 797.05 174.23 803.11 174.87 814.38 178.66 820.53 182.11 825.5 184.9 831.11 188.34 837.57 192.42 845.18 196.83 853.88 201.87 863.7 207.48 874.61 213.41 886.43 219.86 898.88 226.77 911.58 233.93 924.11 241.48 935.89 249.35 946.47 257.39 955.23 265.69 961.6 274.18 965.56 282.77 966.61 291.51 964.7 300.33 960.61 309.21 954.3 318.15 946.46 327.1 938.54 336.08 930.9 345.06 924.54 353.99 920.78 362.94 919.77 371.84 921.91 380.66 927.51 389.48 935.83 398.21 946.12 406.8 957.62 415.4 968.54 423.65 977.69 431.52 984.66 439.39 988.19 446.87 987.96 453.94 984.39 460.98 977.37 467.61 967.57 473.8 955.99 479.96 943.28 485.69 930.38 490.98 918.18 496.26 907.25 501.13 898.05 505.61 888.57 512.25 882.19 524.41 883.38 530.27 886.2 536.63 889.35 550.77 887.93 558.98 885.72 565.22 882.12 571.89 877.24 579 871.5 586.74 864.66 594.87 856.94 603.3 848.63 612.14 839.71 621.07 830.4 629.91 820.79 638.72 811.01 647.09 801.2 654.79 791.3 661.9 781.48 667.94 771.84 672.7 762.21 676.39 752.79 678.52 743.62 678.99 734.47 678.21 725.57 675.76 716.94 671.69 708.31 666.64 700.13 660.44 692.37 653.38 684.58 646.02 677.17 638.31 670.12 630.5 662.98 623.1 656.15 616.01 649.56 609.39 642.81 603.62 636.23 598.51 629.75 594.07 623.02 590.6 616.28 587.76 609.48 585.45 602.32 583.96 595.01 582.79 587.52 581.81 579.65 581.32 571.59 580.77 563.36 580.03 554.89 579.45 546.39 578.45 537.97 576.97 529.62 575.39 521.6 573.2 514.1 570.36 507.06 567.29 500.81 563.54 495.48 559.14 490.89 554.47 487.33 549.18 484.81 543.31 482.92 537.23 481.89 530.63 481.57 523.6 481.34 516.41 481.39 508.85 481.5 500.98 481.04 493.03 480.25 484.84 479.02 476.45 476.89 468.03 474.31 459.47 471.38 450.8 467.91 442.12 464.53 433.35 461.56 424.53 458.89 415.71 457.26 407.04 456.81 398.52 457.25 390 459.02 381.62 462 373.39 465.73 365.11 470.34 356.95 475.59 348.9 480.91 340.78 486.37 332.73 491.75 324.74 496.56 316.66 500.99 308.61 505 300.58 508.23 292.44 511.07 284.31 513.64 276.19 515.67 267.96 517.71 259.76 519.91 251.6 522.04 243.38 524.63 235.25 527.8 227.26 531.28 219.3 535.49 211.57 540.45 204.13 545.89 196.85 552.07 189.98 558.9 183.61 566.19 177.55 574.02 172.09 582.29 167.31 590.88 162.97 599.76 159.38 608.84 156.61 618.1 154.31 627.46 152.81 636.82 152.14 646.27 151.84 655.68 152.26 665 153.36 674.35 154.62 683.58 156.37 692.65 158.54 701.74 160.55 710.65 162.77 719.33 165.09" stroke-dasharray="5 6" transform="rotate(36.36, 711, 400)" opacity="0.33"></path><path d="M707 179.99C714.94 181.83 722.42 183.59 729.43 185.23 736.42 186.36 742.93 187.35 748.95 188.22 757.74 188.78 773.23 189.4 780.23 189.84 787.39 190.35 802.61 193.35 811.49 196.13 818.33 198.35 825.89 201.16 834.25 204.53 843.48 208.17 853.52 212.38 864.3 217.14 875.62 222.17 887.3 227.7 899.01 233.69 910.38 239.92 921.03 246.55 930.47 253.52 938.45 260.68 944.47 268.11 948.15 275.77 949.72 283.56 948.79 291.52 945.48 299.61 940.63 307.77 934.24 316.01 926.93 324.3 920 332.63 913.66 340.97 908.71 349.28 906.2 357.62 906.16 365.92 908.83 374.13 914.45 382.35 922.34 390.47 931.87 398.46 942.45 406.45 952.54 414.11 961.18 421.41 968.07 428.71 972.06 435.64 972.84 442.2 970.72 448.75 965.46 454.93 957.53 460.74 947.71 466.53 936.44 471.97 924.49 477.06 912.64 482.18 901.4 487 891.26 491.53 882.71 496.17 875.8 500.59 870.57 504.86 866.18 511.56 864.84 525.43 865.88 532.97 866.85 538.52 867.28 544.36 866.95 550.51 866.23 557.19 864.49 564.22 861.7 571.57 858.29 579.39 853.85 587.46 848.48 595.69 842.57 604.16 835.9 612.58 828.63 620.79 821.01 628.86 812.97 636.42 804.65 643.28 796.17 649.55 787.55 654.79 778.88 658.85 770.17 661.94 761.49 663.63 752.9 663.83 744.32 662.95 735.85 660.59 727.52 656.79 719.2 652.14 711.2 646.44 703.51 639.94 695.79 633.16 688.34 625.98 681.12 618.65 673.82 611.6 666.69 604.73 659.69 598.2 652.53 592.35 645.42 587 638.31 582.2 630.98 578.23 623.57 574.79 616.06 571.84 608.29 569.63 600.38 567.76 592.34 566.14 584.09 565.02 575.76 563.95 567.43 562.81 559.07 561.91 550.86 560.77 542.94 559.29 535.28 557.83 528.13 555.91 521.64 553.48 513.17 549.39 501.72 538.13 498.81 530.99 497.64 525.88 497.13 520.28 497.13 514.23 497.07 508.05 497.12 501.47 497.11 494.54 496.45 487.53 495.42 480.21 493.94 472.65 491.61 465.05 488.86 457.22 485.8 449.22 482.27 441.21 478.84 433.04 475.81 424.74 473.07 416.43 471.31 408.19 470.66 400.03 470.85 391.86 472.31 383.76 474.95 375.74 478.34 367.69 482.67 359.7 487.69 351.76 492.91 343.78 498.4 335.82 503.93 327.91 509.06 319.92 513.92 311.95 518.42 304.01 522.21 295.99 525.6 287.99 528.65 280.03 531.07 272.01 533.34 264.05 535.57 256.19 537.53 248.32 539.72 240.59 542.25 233.06 544.87 225.62 548.03 218.45 551.78 211.62 555.84 205 560.55 198.81 565.88 193.13 571.6 187.77 577.89 183.01 584.67 178.91 591.78 175.21 599.28 172.22 607.09 169.99 615.13 168.16 623.36 167.07 631.71 166.71 640.2 166.67 648.72 167.27 657.2 168.46 665.76 169.77 674.23 171.52 682.55 173.63 690.9 175.59 699.07 177.74 707 179.99" stroke-dasharray="1 6" transform="rotate(40.400000000000006, 711, 400)" opacity="0.77"></path><path d="M695.89 194.89C703.13 196.68 710.03 198.42 716.58 200.07 723.14 201.24 729.36 202.31 735.27 203.28 744.06 204.03 760.75 205 769.03 205.51 774.83 205.73 780.79 206.22 787.02 207.03 793.73 207.83 800.87 209.04 808.53 210.68 816.79 212.45 825.65 214.71 835.11 217.47 845.06 220.43 855.47 223.9 866.15 227.87 876.89 232.06 887.49 236.73 897.61 241.83 907.01 247.14 915.34 252.85 922.21 258.91 927.59 265.14 931.06 271.67 932.42 278.45 932.06 285.36 929.7 292.47 925.52 299.74 920.4 307.09 914.31 314.55 907.8 322.09 901.98 329.68 896.96 337.31 893.34 344.94 891.96 352.59 892.75 360.23 895.83 367.8 901.39 375.38 908.84 382.89 917.62 390.29 927.3 397.69 936.58 404.8 944.67 411.59 951.39 418.38 955.7 424.86 957.29 431.03 956.43 437.19 952.78 443.05 946.63 448.61 938.61 454.18 928.97 459.49 918.3 464.53 907.28 469.63 896.32 474.52 885.89 479.22 876.45 484.06 868.17 488.78 861.2 493.44 853.68 500.76 846.3 516.15 845.17 524.48 845.19 530.49 845.15 536.75 844.83 543.26 844.54 550.18 843.63 557.36 842.01 564.75 840.09 572.46 837.34 580.29 833.79 588.15 829.85 596.11 825.15 603.92 819.78 611.42 814.11 618.71 807.87 625.45 801.19 631.48 794.33 636.93 787.13 641.42 779.68 644.82 772.16 647.37 764.47 648.66 756.68 648.64 748.87 647.68 741 645.42 733.1 641.89 725.19 637.62 717.44 632.41 709.84 626.47 702.21 620.24 694.71 613.6 687.3 606.76 679.83 600.11 672.4 593.53 665 587.17 657.49 581.34 649.94 575.87 642.34 570.83 634.59 566.48 626.76 562.57 618.85 559.07 610.8 556.24 602.69 553.73 594.56 551.48 586.4 549.74 578.3 548.1 570.37 546.47 562.6 545.16 555.14 543.7 548.12 542.04 538.5 539.56 523.59 532.75 518.65 528.22 515.38 523.08 512.93 510.26 513.02 502.64 512.97 497.31 512.9 491.59 512.67 485.5 511.76 479.34 510.46 472.85 508.72 466.06 506.19 459.23 503.29 452.14 500.13 444.81 496.56 437.47 493.12 429.91 490.06 422.16 487.28 414.4 485.41 406.63 484.57 398.88 484.52 391.12 485.65 383.37 487.91 375.64 490.93 367.9 494.89 360.17 499.59 352.45 504.61 344.71 510 336.98 515.56 329.26 520.88 321.51 526.06 313.77 530.99 306.05 535.33 298.31 539.3 290.6 542.92 282.96 545.9 275.32 548.63 267.77 551.19 260.35 553.33 252.98 555.51 245.8 557.83 238.85 560.03 232.04 562.55 225.53 565.48 219.39 568.53 213.49 572.08 208.02 576.15 203.07 580.47 198.43 585.32 194.36 590.65 190.92 596.24 187.84 602.27 185.42 608.66 183.68 615.27 182.3 622.16 181.57 629.26 181.49 636.5 181.66 643.87 182.4 651.3 183.66 658.82 184.99 666.33 186.72 673.78 188.76 681.27 190.66 688.65 192.72 695.89 194.89" stroke-dasharray="8 4" transform="rotate(44.44, 711, 400)" opacity="0.21"></path><path d="M689.35 209.79C696 211.53 702.48 213.24 708.79 214.88 715.12 216.09 721.31 217.23 727.38 218.28 733.51 218.93 739.6 219.53 745.69 220.12 751.92 220.4 758.26 220.74 764.76 221.2 771.53 221.47 778.58 221.95 785.96 222.67 793.7 223.34 801.85 224.34 810.41 225.69 819.33 227.11 828.62 228.94 838.2 231.2 847.92 233.58 857.71 236.42 867.37 239.69 876.71 243.14 885.53 247.01 893.54 251.29 900.64 255.75 906.5 260.58 910.86 265.75 913.87 271.08 915.17 276.71 914.71 282.6 912.97 288.61 909.71 294.85 905.18 301.27 900.21 307.77 894.72 314.41 889.2 321.16 884.56 327.96 880.83 334.83 878.43 341.74 878.05 348.67 879.51 355.62 882.9 362.55 888.34 369.48 895.32 376.38 903.37 383.21 912.18 390.05 920.67 396.64 928.19 402.99 934.65 409.33 939.13 415.44 941.37 421.3 941.56 427.16 939.32 432.8 934.83 438.22 928.57 443.67 920.64 448.92 911.5 454.01 901.68 459.16 891.48 464.2 881.35 469.13 871.69 474.2 862.7 479.23 854.61 484.25 847.62 489.48 841.7 494.77 836.79 500.15 833.04 505.81 830.1 511.62 827.81 517.59 826.3 523.88 825.08 530.36 823.94 537.03 823.14 543.99 822.11 551.1 820.72 558.33 819.32 565.75 817.38 573.18 814.84 580.53 812.14 587.88 808.79 594.99 804.84 601.74 800.68 608.22 795.95 614.14 790.7 619.36 785.31 624.04 779.47 627.83 773.24 630.63 766.93 632.68 760.31 633.63 753.41 633.42 746.49 632.41 739.33 630.26 731.98 626.99 724.62 623.09 717.24 618.35 709.85 612.94 702.46 607.26 695.05 601.17 687.62 594.84 680.15 588.62 672.65 582.39 665.09 576.26 657.49 570.54 649.82 565.08 642.09 559.92 634.32 555.31 626.5 551.06 618.66 547.14 610.82 543.79 603.03 540.74 595.33 537.92 587.76 535.58 580.39 533.38 573.32 531.25 566.53 529.44 560.18 527.59 554.37 525.63 541.06 519.47 530.08 507.33 529.22 501.96 528.92 496.09 528.78 482.27 528.11 474.38 526.92 468.95 525.33 463.18 523.33 457.1 520.62 450.99 517.59 444.58 514.37 437.9 510.8 431.21 507.37 424.27 504.31 417.08 501.52 409.89 499.56 402.64 498.55 395.36 498.26 388.07 499.06 380.75 500.93 373.4 503.53 366.06 507.06 358.69 511.37 351.32 516.06 343.94 521.22 336.55 526.67 329.18 532.04 321.8 537.4 314.44 542.63 307.11 547.41 299.8 551.92 292.54 556.11 285.38 559.73 278.25 563.06 271.25 566.15 264.42 568.75 257.68 571.25 251.15 573.73 244.89 575.94 238.79 578.29 233.01 580.85 227.62 584.78 220.1 594.6 207.89 600.62 203.39 607.29 199.95 622.78 196.5 631.42 196.45 637.39 196.8 643.57 197.64 649.92 198.94 656.33 200.28 662.86 201.95 669.45 203.92 676.06 205.74 682.71 207.71 689.35 209.79" stroke-dasharray="3 4" transform="rotate(48.48, 711, 400)" opacity="0.95"></path><path d="M689.38 224.69C695.55 226.37 701.73 228.03 707.91 229.65 714.12 230.9 720.36 232.09 726.65 233.22 733.01 233.98 739.48 234.71 746.08 235.43 752.82 235.85 759.75 236.32 766.92 236.87 774.27 237.22 781.9 237.73 789.82 238.43 797.92 239.05 806.31 239.92 814.91 241.08 823.62 242.25 832.43 243.76 841.23 245.62 849.88 247.55 858.28 249.87 866.23 252.56 873.65 255.37 880.32 258.56 886.02 262.12 892.55 267.82 897.36 281.08 895.45 288.52 892.87 293.66 889.24 299.05 884.81 304.63 880.32 310.28 875.67 316.11 871.24 322.07 867.8 328.07 865.27 334.18 863.98 340.37 864.44 346.58 866.44 352.84 870.02 359.13 875.29 365.43 881.78 371.73 889.11 378.02 897.1 384.32 904.81 390.44 911.73 396.39 917.87 402.34 922.4 408.12 925.09 413.73 926.14 419.36 925.11 424.83 922.1 430.16 917.51 435.53 911.29 440.78 903.77 445.94 895.41 451.17 886.37 456.35 877.04 461.48 867.75 466.75 858.71 472.03 850.15 477.33 842.28 482.82 835.15 488.39 828.82 494.05 823.4 499.93 818.73 505.94 814.74 512.08 811.53 518.44 808.79 524.95 806.35 531.55 804.41 538.35 802.54 545.22 800.6 552.11 798.87 559.08 796.89 565.98 794.57 572.71 792.26 579.37 789.52 585.73 786.31 591.69 783.03 597.36 779.26 602.48 775.01 606.93 768.28 612.45 752.55 618.21 743.67 618.16 737.61 617.13 731.21 615.1 724.49 612.09 717.78 608.55 710.92 604.26 703.95 599.36 696.98 594.22 689.91 588.67 682.74 582.86 675.59 577.1 668.34 571.26 661.02 565.45 653.72 559.93 646.36 554.56 638.99 549.4 631.65 544.68 624.33 540.2 617.09 536 609.95 532.26 602.95 528.76 596.17 525.48 589.6 522.62 583.34 519.91 577.48 517.29 569.43 513.85 556.66 507.13 552.16 503.59 547.3 495.79 545.2 481.31 545.2 475.33 544.51 468.96 540.91 454.5 537.74 446.45 534.88 440.96 531.76 435.18 528.51 429.11 524.97 423.03 521.59 416.68 518.57 410.08 515.78 403.47 513.76 396.77 512.61 390.01 512.08 383.25 512.57 376.42 514.04 369.56 516.2 362.7 519.25 355.8 523.08 348.89 527.36 341.99 532.17 335.09 537.36 328.19 542.6 321.32 547.97 314.47 553.34 307.69 558.41 300.94 563.32 294.27 568 287.71 572.21 281.23 576.16 274.9 579.86 268.75 583.08 262.73 586.13 256.94 589.05 251.43 592.91 243.59 600.57 230.08 604.73 224.58 609.06 219.95 619.35 213.67 625.38 212.07 631.83 211.33 646.4 212.54 654.39 214.3 659.83 215.62 665.49 217.24 671.33 219.11 677.18 220.83 683.2 222.71 689.38 224.69" stroke-dasharray="2 5" transform="rotate(52.52, 711, 400)" opacity="0.68"></path><path d="M695.95 239.59C701.74 241.2 707.66 242.81 713.71 244.4 719.78 245.67 725.99 246.9 732.36 248.09 745.24 249.5 758.92 250.91 773.35 252.46 788.13 253.21 803.62 254.57 819.34 256.73 834.63 258.74 849.06 261.94 861.44 266.36 871.41 271.04 877.68 277.06 879.42 284.28 877.98 291.85 872.67 300.52 864.74 310.08 857.67 319.85 852.05 330.34 849.96 341.31 851.11 346.82 853.53 352.43 857.2 358.1 862.23 363.78 868.22 369.53 874.86 375.31 882.05 381.09 888.99 386.78 895.32 392.36 901.06 397.95 905.54 403.43 908.52 408.82 910.49 419.65 905.58 430.2 894.91 440.52 880.62 451.13 863.96 461.78 847.02 472.56 831.33 483.9 817.63 495.61 806.25 507.64 797.47 520.27 790.35 533.13 784.12 545.87 779.17 558.63 773.84 570.64 767.58 581.22 761.47 590.65 753.91 597.71 744.84 601.77 737.78 603.19 721.8 600.89 712.92 597.19 706.89 593.99 700.67 590.14 694.31 585.74 687.96 581.11 681.47 576.1 674.89 570.82 661.82 560.33 648.48 549.61 635.23 539.22 622.38 530.12 610.01 521.75 598.67 514.14 588.3 507.94 579.52 502.16 572.8 496.54 567.38 491.76 564.05 486.59 562.68 480.79 561.6 475.26 561.34 468.75 561.19 461.17 559.26 453.59 556.23 444.83 551.93 434.95 548.96 429.99 545.8 424.75 542.55 419.25 539.08 413.74 535.78 407.97 532.82 401.94 530.07 395.92 528.02 389.79 526.74 383.59 526.01 377.4 526.19 371.13 527.26 364.83 531.28 352.25 538.41 339.54 547.73 326.93 557.7 314.45 568.2 302.18 578.47 290.42 587.41 279 595.54 268.32 602.92 258.72 608.85 249.78 614.62 242.2 620.6 236.3 625.97 231.28 632.18 228.06 639.4 226.75 646.55 226.14 654.88 227.19 664.35 229.74 671.58 231.79 687.39 236.83 695.95 239.59" stroke-dasharray="6 2" transform="rotate(56.56, 711, 400)" opacity="0.23"></path><path d="M707.08 254.49C717.99 257.29 729.64 260.13 741.92 262.87 754.3 264.5 767.37 266.16 780.89 267.93 794.37 268.93 807.97 270.41 821.08 272.51 833.3 274.34 844.01 277.12 852.3 280.91 858.39 284.78 861.15 289.79 860.26 295.88 857.41 302.16 852.02 309.48 845.28 317.67 840.09 326.01 836.64 335.11 836.36 344.8 840.94 354.53 849.38 364.77 860.61 375.37 873.59 385.98 884.61 396.46 891.7 406.75 894.89 417.11 892.37 427.42 884.73 437.68 873.61 448.18 859.57 458.82 844.3 469.62 829.11 480.82 814.76 492.29 801.89 503.91 790.84 515.87 781.3 527.81 772.91 539.4 765.83 550.79 759.02 561.27 752 570.3 745.39 578.22 737.97 583.99 729.53 587.11 721.1 588.45 711.51 586.86 700.77 582.29 690.02 576.24 678.73 568.14 667.18 558.7 655.78 549.16 644.35 539.2 633.28 529.31 622.67 520.34 612.81 511.82 604.13 503.85 596.33 497.01 590.07 490.54 585.62 484.28 582 478.81 579.96 473.14 579.28 467.1 578.34 461.39 577.73 454.98 576.89 447.78 574.26 440.64 570.6 432.56 565.89 423.53 559.48 414.49 552.89 404.49 547.07 393.59 542.03 382.68 539.79 371.43 540.64 360.04 543.7 348.7 549.7 337.29 557.94 326.05 567.13 314.96 577.25 304.17 587.57 293.95 597.13 284.08 606.19 274.99 614.63 266.96 621.82 259.53 628.65 253.37 635.38 248.74 641.33 244.81 647.69 242.46 654.71 241.75 661.43 241.55 669.11 242.76 677.81 245.25 686.43 247.62 696.17 250.77 707.08 254.49" stroke-dasharray="1 7" transform="rotate(60.599999999999994, 711, 400)" opacity="0.56"></path><path d="M719.4 269.39C729.61 272.06 740.43 274.82 751.67 277.57 762.93 279.38 774.52 281.25 786.12 283.23 797.44 284.5 808.32 286.15 818.18 288.28 830.57 291.35 841.98 301.43 839.8 308.75 836.55 314.02 831.84 320.22 826.71 327.25 823.44 334.36 821.95 342.25 823.14 350.79 828.25 359.36 836.28 368.53 846.36 378.21 857.85 387.89 867.79 397.65 874.67 407.41 878.69 417.23 878.1 427.15 873.15 437.12 865.1 447.28 853.99 457.62 841.08 468.08 827.46 478.79 813.73 489.66 800.63 500.51 788.5 511.49 777.45 522.27 767.45 532.51 758.49 542.43 750.13 551.37 742.04 558.89 734.44 565.41 726.6 570.01 718.32 572.31 710.12 573.16 701.26 571.54 691.71 567.39 682.16 562.03 672.42 554.88 662.73 546.5 653.17 537.93 643.88 528.82 635.19 519.59 626.89 510.97 619.49 502.56 613.29 494.51 607.69 487.31 603.45 480.39 600.64 473.68 598.17 467.64 596.79 461.53 596.21 455.22 595 449.26 593.77 442.84 592.12 435.86 588.82 428.99 584.62 421.42 579.61 413.12 573.26 404.82 566.9 395.75 561.32 385.95 556.43 376.15 553.96 366.11 554.19 356.02 556.33 345.98 561.15 335.97 568.15 326.19 576.27 316.57 585.6 307.32 595.5 298.68 605.14 290.36 614.65 282.83 623.79 276.31 632.04 270.28 639.92 265.42 647.56 261.9 654.46 258.91 661.47 257.28 668.8 257.06 675.76 257.16 683.36 258.45 691.73 260.83 699.99 263.04 709.19 265.95 719.4 269.39" stroke-dasharray="6 9" transform="rotate(64.64, 711, 400)" opacity="0.83"></path><path d="M729.17 284.29C738.57 286.8 748.22 289.46 757.95 292.18 767.61 294.11 777.18 296.15 786.32 298.31 795.09 299.84 803.04 301.68 809.7 303.91 819.82 311.59 814.29 329.74 809.21 338.49 807.77 344.6 807.95 351.46 810.28 358.99 815.65 366.52 823.16 374.71 832.11 383.5 842.17 392.28 850.99 401.28 857.49 410.39 861.97 419.54 862.84 428.88 860.15 438.32 854.88 447.88 846.73 457.6 836.54 467.39 825.23 477.3 813.13 487.25 800.96 497.05 789.06 506.82 777.66 516.24 767 525.04 756.98 533.44 747.57 540.87 738.66 546.97 730.17 552.21 721.84 555.77 713.55 557.38 705.37 557.83 697.02 556.22 688.5 552.49 679.97 547.8 671.67 541.56 663.75 534.21 655.92 526.63 648.62 518.44 642.07 510 635.77 501.93 630.4 493.87 626.1 486 622.09 478.73 619.15 471.64 617.24 464.71 615.26 458.31 613.94 451.9 612.99 445.42 611.22 439.25 609.23 432.8 606.76 426 602.85 419.32 598.24 412.16 593.07 404.49 586.9 396.85 580.85 388.64 575.57 379.9 570.88 371.16 568.27 362.33 567.95 353.55 569.23 344.81 572.88 336.21 578.55 327.91 585.38 319.76 593.57 312.03 602.58 304.92 611.75 298.08 621.13 292 630.42 286.85 639.23 282.09 647.8 278.35 656.13 275.77 663.9 273.58 671.62 272.52 679.42 272.64 686.88 272.94 694.67 274.24 702.9 276.46 711.03 278.49 719.77 281.13 729.17 284.29" stroke-dasharray="0 2" transform="rotate(68.68, 711, 400)" opacity="0.58"></path><path d="M733.44 299.19C741.87 301.52 750.15 304.04 758.12 306.68 766.01 308.69 773.43 310.84 780.11 313.13 794.78 319.18 801.28 331.14 798.38 336.89 795.51 343.2 793.86 359.2 797.75 368.84 803.15 375.48 810.03 382.76 817.86 390.65 826.55 398.55 834.26 406.71 840.21 415.03 844.82 423.39 846.7 431.94 845.77 440.6 842.86 449.32 837.43 458.16 830.02 466.98 821.38 475.83 811.59 484.61 801.23 493.14 790.65 501.54 780.07 509.52 769.81 516.83 759.81 523.75 750.23 529.74 741.14 534.54 732.31 538.63 723.83 541.29 715.68 542.32 707.62 542.46 699.75 540.9 692.1 537.59 684.46 533.54 677.37 528.17 670.9 521.81 664.46 515.23 658.71 508.01 653.76 500.46 648.89 493.1 644.86 485.62 641.72 478.16 638.58 471.12 636.2 464.13 634.49 457.25 632.45 450.76 630.72 444.27 629.11 437.77 626.63 431.53 623.86 425.14 620.66 418.56 616.3 412.1 611.45 405.33 606.28 398.27 600.4 391.23 594.75 383.83 589.83 376.11 585.39 368.39 582.71 360.72 581.94 353.21 582.45 345.74 584.99 338.5 589.32 331.62 594.74 324.86 601.53 318.55 609.29 312.86 617.46 307.37 626.11 302.58 634.94 298.63 643.64 294.94 652.3 292.15 660.81 290.33 669.01 288.76 677.11 288.13 685.14 288.46 692.95 288.89 700.84 290.13 708.86 292.15 716.8 293.97 725 296.34 733.44 299.19" stroke-dasharray="0 7" transform="rotate(72.72, 711, 400)" opacity="0.12"></path><path d="M730.9 314.09C738.24 316.21 745.1 318.57 751.39 321.07 760.36 324.19 774 330.64 778.13 334.15 780.77 341.73 778.23 356.94 778 363.76 779.44 368.45 781.9 373.74 785.49 379.59 790.7 385.43 796.88 391.86 803.61 398.85 810.99 405.84 817.58 413.09 822.88 420.5 827.34 427.93 829.79 435.53 830.13 443.19 829.07 450.86 825.94 458.59 821.07 466.23 815.1 473.84 807.88 481.29 799.84 488.43 791.33 495.4 782.44 501.92 773.51 507.77 764.55 513.28 755.74 517.95 747.26 521.59 738.87 524.67 730.8 526.57 723.14 527.13 715.54 527.04 708.28 525.58 701.43 522.69 694.59 519.25 688.44 514.7 683.01 509.32 677.56 503.71 672.82 497.5 668.8 490.9 664.75 484.39 661.37 477.65 658.64 470.84 655.74 464.27 653.33 457.66 651.3 451.1 648.82 444.8 646.46 438.49 644.06 432.2 640.9 426.1 637.47 419.92 633.73 413.67 629.13 407.52 624.24 401.22 619.22 394.78 613.75 388.36 608.58 381.76 604.08 375.01 599.97 368.27 597.3 361.7 596.19 355.39 596.05 349.11 597.58 343.13 600.64 337.55 604.63 332.05 609.9 327.01 616.16 322.55 622.94 318.23 630.36 314.54 638.15 311.58 646.05 308.78 654.11 306.73 662.16 305.49 670.12 304.39 678.02 304.05 685.8 304.5 693.48 304.96 701.1 306.09 708.62 307.87 716.11 309.47 723.56 311.56 730.9 314.09" stroke-dasharray="4 9" transform="rotate(76.76, 711, 400)" opacity="0.95"></path><path d="M722.33 328.99C734.66 332.43 744.44 336.83 751.22 341.8 757.64 345.5 760.86 350.22 761.24 356.03 762.41 361.18 762.89 367.98 764.39 376.46 770.11 384.77 778.78 395.04 789.36 407.18 801.75 419.32 810.35 432.27 813.41 445.29 812.84 458.26 806.24 471.06 795.5 482.63 782.78 493.56 768.29 502.47 753.92 508.14 739.46 512.18 725.75 512.26 713.66 507.79 701.57 501.71 692.02 492.38 684.84 481.26 677.26 470.15 671.37 458.11 666.57 446.01 660.11 434.51 653.33 422.81 645.93 411.24 636.25 399.94 626.46 388.32 618.33 376.73 611.39 365.13 609.53 354.62 612.67 345.7 618.68 336.94 628.74 330.07 641.09 325.59 654.43 321.46 668.64 319.77 682.55 320.7 696.48 321.49 709.99 324.31 722.33 328.99" stroke-dasharray="8 5" transform="rotate(80.80000000000001, 711, 400)" opacity="0.34"></path><path d="M710.32 343.89C720.32 346.93 728.01 350.95 733.3 355.6 738.58 359.34 741.76 364.01 743.35 369.52 746.01 374.52 748.62 380.78 752.05 388.28 758.34 395.62 766.32 404.46 775.11 414.7 785.12 424.93 792.39 435.64 795.81 446.19 797.15 456.65 794.04 466.7 787.44 475.52 779.26 483.81 768.96 490.32 757.96 494.2 746.67 496.96 735.43 496.67 725.08 492.89 714.73 488.01 706.14 480.52 699.15 471.47 691.76 462.28 685.3 452.08 679.41 441.64 672.26 431.49 664.85 421.1 657.25 410.9 648.3 400.87 639.64 390.79 632.58 381.06 626.39 371.34 624.06 362.84 625.53 355.86 629.03 348.97 635.9 343.74 644.94 340.48 655.04 337.34 666.3 336.15 677.6 337.01 689.14 337.66 700.33 339.97 710.32 343.89" stroke-dasharray="4 3" transform="rotate(84.84, 711, 400)" opacity="0.62"></path><path d="M698.52 358.79C706.29 361.36 712.51 364.87 717.19 369 722.01 372.55 725.71 376.91 728.64 381.93 732.47 386.59 736.45 392.19 740.86 398.62 746.98 404.95 753.87 412.3 760.86 420.56 768.6 428.81 774.38 437.21 777.59 445.27 779.8 453.23 778.95 460.66 775.48 466.96 771.02 472.89 764.57 477.35 756.98 479.8 749.1 481.55 740.65 481.05 732.23 477.99 723.82 474.24 716.21 468.49 709.43 461.46 702.37 454.27 695.67 446.12 689.27 437.65 682.11 429.27 674.84 420.61 667.73 412.13 659.96 403.72 652.7 395.39 646.84 387.53 640.31 376.33 642.85 360.37 650.78 356.01 657.49 353.62 665.42 352.72 673.71 353.39 682.25 353.84 690.75 355.64 698.52 358.79" stroke-dasharray="6 7" transform="rotate(88.88, 711, 400)" opacity="0.87"></path><path d="M690.5 373.69C701.92 377.39 710.82 384.39 717.65 393.07 726.69 400.96 736.93 411.65 746.6 424.1 757.93 436.55 762.61 448.43 760.05 456.9 755.66 464.48 745.59 467.3 732.95 463.09 720.3 457.36 707.63 446.3 696.03 433.66 683.16 421.03 670.28 407.33 661.09 395.4 653.24 383.47 653.3 375.38 659.43 371.89 667.44 368.2 679.08 368.66 690.5 373.69" stroke-dasharray="0 9" transform="rotate(92.92, 711, 400)" opacity="0.20"></path><path d="M688.69 388.59C696.27 391.28 703.7 396.48 710.34 402.86 717.89 408.91 725.79 416.63 732.35 424.93 739.65 443.67 713.92 441.07 700.09 429.33 690.74 421.03 681.67 411.84 675.34 403.79 669.1 393 677.94 385.23 688.69 388.59" stroke-dasharray="2 7" transform="rotate(96.96, 711, 400)" opacity="0.59"></path></g></svg>