<!-- <svg xmlns="http://www.w3.org/2000/svg" width="100" height="100" viewBox="0 0 100 100">
  <g id="Rectangle_1" data-name="Rectangle 1" fill="#badfd8" stroke="#707070" stroke-linecap="round" stroke-width="1">
    <rect width="100" height="100" rx="17" stroke="none"/>
    <rect x="0.5" y="0.5" width="99" height="99" rx="16.5" fill="none"/>
  </g>
  <line id="Line_1" data-name="Line 1" x2="35" y2="70" transform="translate(15.5 18.5)" fill="none" stroke="#000" stroke-linecap="round" stroke-width="6"/>
  <line id="Line_2" data-name="Line 2" x1="36" y2="70" transform="translate(50.5 18.5)" fill="none" stroke="#000" stroke-linecap="round" stroke-width="6"/>
  <line id="Line_4" data-name="Line 4" x1="4" y2="16" transform="translate(24.5 18.5)" fill="none" stroke="#000" stroke-linecap="round" stroke-width="3"/>
  <line id="Line_5" data-name="Line 5" y1="5" x2="8" transform="translate(26.5 22.5)" fill="none" stroke="#000" stroke-linecap="round" stroke-width="3"/>
  <line id="Line_6" data-name="Line 6" x1="20" transform="translate(6.5 42.5)" fill="none" stroke="#000" stroke-linecap="round" stroke-width="3"/>
  <line id="Line_7" data-name="Line 7" x1="9" y1="10" transform="translate(6.5 32.5)" fill="none" stroke="#000" stroke-linecap="round" stroke-width="3"/>
  <line id="Line_8" data-name="Line 8" x1="11" y2="8" transform="translate(11.5 42.5)" fill="none" stroke="#000" stroke-linecap="round" stroke-width="3"/>
  <line id="Line_9" data-name="Line 9" y1="19" x2="10" transform="translate(33.5 32.5)" fill="none" stroke="#000" stroke-linecap="round" stroke-width="3"/>
  <line id="Line_11" data-name="Line 11" y1="2" x2="8" transform="translate(37.5 42.5)" fill="none" stroke="#000" stroke-linecap="round" stroke-width="3"/>
  <line id="Line_12" data-name="Line 12" x1="2" y1="19" transform="translate(77.5 10.5)" fill="none" stroke="#000" stroke-linecap="round" stroke-width="3"/>
  <line id="Line_13" data-name="Line 13" x1="6" y1="6" transform="translate(72.5 14.5)" fill="none" stroke="#000" stroke-linecap="round" stroke-width="3"/>
  <line id="Line_14" data-name="Line 14" y1="8" x2="14" transform="translate(73.5 37.5)" fill="none" stroke="#000" stroke-linecap="round" stroke-width="3"/>
  <line id="Line_15" data-name="Line 15" x1="6" y1="14" transform="translate(64.5 32.5)" fill="none" stroke="#000" stroke-linecap="round" stroke-width="3"/>
  <line id="Line_21" data-name="Line 21" x2="7" y2="3" transform="translate(80.5 41.5)" fill="none" stroke="#000" stroke-linecap="round" stroke-width="3"/>
  <line id="Line_23" data-name="Line 23" x2="2" y2="2" transform="translate(55.5 59.5)" fill="none" stroke="#000" stroke-linecap="round" stroke-width="2"/>
  <line id="Line_24" data-name="Line 24" x1="2" y2="2" transform="translate(53.5 59.5)" fill="none" stroke="#000" stroke-linecap="round" stroke-width="2"/>
  <line id="Line_25" data-name="Line 25" x1="2" y2="2" transform="translate(44.5 59.5)" fill="none" stroke="#000" stroke-linecap="round" stroke-width="2"/>
  <line id="Line_26" data-name="Line 26" x2="2" y2="2" transform="translate(46.5 59.5)" fill="none" stroke="#000" stroke-linecap="round" stroke-width="2"/>
</svg> -->
<!-- <svg xmlns="http://www.w3.org/2000/svg" width="100" height="100" viewBox="0 0 100 100">
  <g id="Rectangle_1" data-name="Rectangle 1" fill="#badfd8" stroke="#000" stroke-linecap="round" stroke-width="1">
    <rect width="100" height="100" rx="17" stroke="none"/>
    <rect x="0.5" y="0.5" width="99" height="99" rx="16.5" fill="none"/>
  </g>
  <path id="Path_1" data-name="Path 1" d="M0,70" transform="translate(50.5 18.5)" fill="none" stroke="#000" stroke-linecap="round" stroke-width="6"/>
  <text id="tinek." transform="translate(28 56)" font-size="20" font-family="SegoeUI-Semibold, Segoe UI" font-weight="600"><tspan x="0" y="0">tinek.</tspan></text>
</svg> -->
<!-- 
<svg xmlns="http://www.w3.org/2000/svg" width="100" height="100" viewBox="0 0 100 100">
  <g id="Rectangle_1" data-name="Rectangle 1" fill="#badfd8" stroke="#000" stroke-linecap="round" stroke-width="1">
    <rect width="100" height="100" rx="17" stroke="none"/>
    <rect x="0.5" y="0.5" width="99" height="99" rx="16.5" fill="none"/>
  </g>
  <path id="Path_1" data-name="Path 1" d="M0,70" transform="translate(50.5 18.5)" fill="none" stroke="#000" stroke-linecap="round" stroke-width="6"/>
  <line id="Line_1" data-name="Line 1" x2="75" y2="76" transform="translate(12.5 12.5)" fill="none" stroke="#707070" stroke-linecap="round" stroke-width="5"/>
  <line id="Line_2" data-name="Line 2" x1="75" y2="72" transform="translate(12.5 16.5)" fill="none" stroke="#707070" stroke-linecap="round" stroke-width="5"/>
  <line id="Line_5" data-name="Line 5" y1="76" transform="translate(12.5 12.5)" fill="none" stroke="#707070" stroke-linecap="round" stroke-width="5"/>
  <g id="Ellipse_1" data-name="Ellipse 1" transform="translate(77 47)" fill="#fff" stroke="#707070" stroke-width="2">
    <circle cx="5.5" cy="5.5" r="5.5" stroke="none"/>
    <circle cx="5.5" cy="5.5" r="4.5" fill="none"/>
  </g>
</svg> -->


<svg xmlns="http://www.w3.org/2000/svg" width="100" height="100" viewBox="0 0 100 100">
  <g id="Rectangle_1" data-name="Rectangle 1" fill="#badfd8" stroke="#000" stroke-linecap="round" stroke-width="1">
    <rect width="100" height="100" rx="17" stroke="none"/>
    <rect x="0.5" y="0.5" width="99" height="99" rx="16.5" fill="none"/>
  </g>
  <path id="Path_1" data-name="Path 1" d="M0,70" transform="translate(50.5 18.5)" fill="none" stroke="#000" stroke-linecap="round" stroke-width="6"/>
  <line id="Line_1" data-name="Line 1" x2="75" y2="76" transform="translate(12.5 12.5)" fill="none" stroke="#707070" stroke-linecap="round" stroke-width="5"/>
  <line id="Line_2" data-name="Line 2" x1="75" y2="72" transform="translate(12.5 16.5)" fill="none" stroke="#707070" stroke-linecap="round" stroke-width="5"/>
  <line id="Line_5" data-name="Line 5" y1="76" transform="translate(12.5 12.5)" fill="none" stroke="#707070" stroke-linecap="round" stroke-width="5"/>
  <g id="Ellipse_1" data-name="Ellipse 1" transform="translate(71 43)" fill="#fff" stroke="#707070" stroke-width="2">
    <ellipse cx="8.5" cy="8" rx="8.5" ry="8" stroke="none"/>
    <ellipse cx="8.5" cy="8" rx="7.5" ry="7" fill="none"/>
  </g>
  <line id="Line_6" data-name="Line 6" y1="76" transform="translate(50.5 12.5)" fill="none" stroke="#707070" stroke-linecap="round" stroke-width="5"/>
</svg>


